# xmcd CD database file
#
# Track frame offsets:
#	150
#	33295
#	61204
#	90753
#	110593
#	121221
#	152219
#	187930
#	224098
#	245991
#	252804
#	276126
#	295766
#	320064
#
# Disc length: 4446 seconds
#
# Revision: 0
# Processed by: cddbd v1.5.2PL0 Copyright (c) Steve Scherf et al.
# Submitted via: CDex 1.77
#
DISCID=cb115c0e
DTITLE=Aaron Parks - Little Big
DYEAR=2018
DGENRE=Jazz
TTITLE0=Kid
TTITLE1=Small Planet
TTITLE2=The Trickster
TTITLE3=Professor Strangeweather
TTITLE4=Lilac
TTITLE5=Aquarium
TTITLE6=Digital Society
TTITLE7=Siren
TTITLE8=Mandala
TTITLE9=Hearth
TTITLE10=The Fool
TTITLE11=Rising Mind
TTITLE12=Good Morning
TTITLE13=Doors Open
EXTD=YEAR: 2018
EXTT0=
EXTT1=
EXTT2=
EXTT3=
EXTT4=
EXTT5=
EXTT6=
EXTT7=
EXTT8=
EXTT9=
EXTT10=
EXTT11=
EXTT12=
EXTT13=
PLAYORDER=
